<?xml version="1.0" encoding="UTF-8"?>
<svg width="155px" height="16px" viewBox="0 0 155 16" version="1.1" xmlns="http://www.w3.org/2000/svg" xmlns:xlink="http://www.w3.org/1999/xlink">
    <!-- Generator: Sketch 46 (44423) - http://www.bohemiancoding.com/sketch -->
    <title>SPA.Wordmark.DarkGray.RGB</title>
    <desc>Created with Sketch.</desc>
    <defs></defs>
    <g id="Symbols" stroke="none" stroke-width="1" fill="none" fill-rule="evenodd">
        <g id="Nav" transform="translate(-75.000000, -33.000000)" fill="#161F20">
            <g id="SPA.Wordmark.DarkGray.RGB" transform="translate(75.000000, 33.000000)">
                <path d="M31.8589738,7.70360906 L25.4481487,7.70360906 L25.4481487,3.34933376 L31.8790289,3.34933376 C33.7496832,3.34933376 34.8225036,4.12582691 34.8225036,5.47993325 C34.8225036,6.87209289 33.7147153,7.70360906 31.8589738,7.70360906 Z M32.547533,0.618494788 L22.0751602,0.618494788 L22.0751602,15.3582373 L25.4481487,15.3582373 L25.4481487,10.4343195 L32.2438779,10.4343195 C35.9578034,10.4343195 38.3578615,8.47226014 38.3578615,5.43583769 C38.3578615,2.46433727 36.1312288,0.618494788 32.547533,0.618494788 L32.547533,0.618494788 Z" id="Fill-1"></path>
                <polygon id="Fill-2" points="83.5846019 15.3582373 86.9574618 15.3582373 86.9574618 0.618494788 83.5846019 0.618494788"></polygon>
                <path d="M101.931181,13.1604018 C98.2317823,13.1604018 95.7461043,11.0821256 95.7461043,7.98875174 C95.7461043,4.89499222 98.2317823,2.81645891 101.931181,2.81645891 C105.643049,2.81645891 108.136955,4.89499222 108.136955,7.98875174 C108.136955,11.0821256 105.643049,13.1604018 101.931181,13.1604018 Z M101.931181,0.111974425 C96.1171241,0.111974425 92.2111322,3.27734102 92.2111322,7.98875174 C92.2111322,12.6995197 96.1171241,15.8648863 101.931181,15.8648863 C107.757193,15.8648863 111.67167,12.6995197 111.67167,7.98875174 C111.67167,3.27734102 107.757193,0.111974425 101.931181,0.111974425 L101.931181,0.111974425 Z" id="Fill-3"></path>
                <path d="M129.746348,8.41402316 C129.746348,11.2045133 127.71641,13.0792814 124.695286,13.0792814 C121.675447,13.0792814 119.645509,11.2045133 119.645509,8.41402316 L119.645509,0.618494788 L116.251566,0.618494788 L116.251566,8.6166313 C116.251566,13.0875091 119.487382,15.8648863 124.695286,15.8648863 C129.903189,15.8648863 133.139006,13.0952226 133.139006,8.63694354 L133.139006,0.618494788 L129.746348,0.618494788 L129.746348,8.41402316" id="Fill-4"></path>
                <path d="M71.1844948,13.1200344 C67.4516712,13.1200344 65.0395286,11.1060375 65.0395286,7.98875174 C65.0395286,4.81078642 67.3708079,2.83638547 71.1234296,2.83638547 C73.1591529,2.83638547 75.2041325,3.22026106 77.0184781,4.34257648 L78.3004632,1.95203177 C76.4548778,0.760680454 74.2554995,0.111974425 71.2046785,0.111974425 C65.5056817,0.111974425 61.5253829,3.35923276 61.5253829,8.00880686 C61.5253829,12.7810257 65.2610349,15.8648863 71.0421806,15.8648863 C74.0645902,15.8648863 76.40474,15.0391552 78.1470929,13.8602741 L76.9854386,11.4828423 C75.3211207,12.4940832 73.3535333,13.1200344 71.1844948,13.1200344" id="Fill-5"></path>
                <path d="M11.1411339,6.67796961 L6.90744647,6.25218396 C4.45776487,5.9923673 4.02657977,5.49446035 4.02657977,4.54428472 C4.02657977,3.03230858 6.99730884,2.71476916 8.8481651,2.71476916 C12.6887208,2.71476916 15.0921213,4.34257648 15.0921213,4.34257648 L16.3681927,1.95203177 C14.8512028,1.05225106 11.8788024,0.111974425 8.96952429,0.111974425 C4.15745229,0.111974425 0.633279012,1.78644847 0.633279012,4.70601127 C0.633279012,7.27589504 2.27407074,8.63900047 5.7973441,8.99562166 L10.3361008,9.4409482 C12.7675271,9.68379514 13.2560493,10.3134745 13.2560493,11.2504086 C13.2560493,12.6276555 11.9234122,13.2416507 8.93494207,13.2416507 C4.58876595,13.2416507 1.31373898,11.4162491 1.31373898,11.4162491 L0,13.8368764 C2.19667854,15.1564006 5.4571784,15.8648863 8.81371143,15.8648863 C13.8927994,15.8648863 16.6901031,14.1254902 16.6901031,10.9671943 C16.6901031,8.32081827 15.0824794,7.077915 11.1411339,6.67796961" id="Fill-6"></path>
                <path d="M148.635444,6.67796961 L144.402013,6.25218396 C141.951689,5.9923673 141.521018,5.49446035 141.521018,4.54428472 C141.521018,3.03230858 144.492004,2.71476916 146.341961,2.71476916 C150.183288,2.71476916 152.586045,4.34257648 152.586045,4.34257648 L153.862631,1.95203177 C152.345641,1.05225106 149.373369,0.111974425 146.464091,0.111974425 C141.652148,0.111974425 138.127074,1.78644847 138.127074,4.70601127 C138.127074,7.27589504 139.768766,8.63900047 143.291268,8.99562166 L147.830668,9.4409482 C150.261708,9.68379514 150.75023,10.3134745 150.75023,11.2504086 C150.75023,12.6276555 149.417079,13.2416507 146.42938,13.2416507 C142.082819,13.2416507 138.808434,11.4162491 138.808434,11.4162491 L137.494567,13.8368764 C139.691631,15.1564006 142.951874,15.8648863 146.308535,15.8648863 C151.386595,15.8648863 154.184027,14.1254902 154.184027,10.9671943 C154.184027,8.32081827 152.577046,7.077915 148.635444,6.67796961" id="Fill-7"></path>
                <path d="M45.8858597,9.80348307 L47.5964586,6.41043944 C48.3725661,4.96724208 48.7953949,4.14421077 49.1323466,3.20162008 C49.4695555,4.14421077 49.8923843,4.9668564 50.6664348,6.40671124 L52.3866757,9.80348307 L45.8858597,9.80348307 Z M47.2533361,0.618494788 L39.3853007,15.3582373 L43.0515311,15.3582373 L44.5212115,12.4579583 L53.7437389,12.4579583 L55.2136764,15.3582373 L59.0552605,15.3582373 L51.1870966,0.618494788 L47.2533361,0.618494788 L47.2533361,0.618494788 Z" id="Fill-8"></path>
            </g>
        </g>
    </g>
</svg>